PathFileType	4	(X/Y/Z)	C:/Users/opensim2020/Desktop/walking_exp_matlab/subject03_walking05_straight_03.trc	
DataRate	CameraRate	NumFrames	NumMarkers	Units	OrigDataRate	OrigDataStartFrame	OrigNumFrames	
100.00	100.00	9	45	mm	100.00	2294	293	
Frame#	Time	LFHD			RFHD			LBHD			RBHD			C7			T10			CLAV			STRN			RBAK			LSHO			LUPA			LELB			LFRM			LWRA			LWRB			LFIN			RSHO			RUPA			RELB			RFRM			RWRA			RWRB			RFIN			LASI			RASI			LPSI			RPSI			LTHI			LKNE			LTIB			LANK			LHEE			LTOE			RTHI			RKNE			RTIB			RANK			RHEE			RTOE			*39			*40			*41			*42			*43			*44			
		X1	Y1	Z1	X2	Y2	Z2	X3	Y3	Z3	X4	Y4	Z4	X5	Y5	Z5	X6	Y6	Z6	X7	Y7	Z7	X8	Y8	Z8	X9	Y9	Z9	X10	Y10	Z10	X11	Y11	Z11	X12	Y12	Z12	X13	Y13	Z13	X14	Y14	Z14	X15	Y15	Z15	X16	Y16	Z16	X17	Y17	Z17	X18	Y18	Z18	X19	Y19	Z19	X20	Y20	Z20	X21	Y21	Z21	X22	Y22	Z22	X23	Y23	Z23	X24	Y24	Z24	X25	Y25	Z25	X26	Y26	Z26	X27	Y27	Z27	X28	Y28	Z28	X29	Y29	Z29	X30	Y30	Z30	X31	Y31	Z31	X32	Y32	Z32	X33	Y33	Z33	X34	Y34	Z34	X35	Y35	Z35	X36	Y36	Z36	X37	Y37	Z37	X38	Y38	Z38	X39	Y39	Z39	X40	Y40	Z40	X41	Y41	Z41	X42	Y42	Z42	X43	Y43	Z43	X44	Y44	Z44	X45	Y45	Z45	

184	1.830	-1080.37048	166.36299	1603.19202	-948.35223	150.03296	1608.74658	-1091.89514	34.36269	1574.99524	-961.21722	23.59381	1579.81567	-1027.56982	-14.72659	1411.30762	-1025.40186	-54.10923	1096.83752	-1026.56091	103.99946	1330.92224	-1028.64526	145.68973	1165.86621	-926.27582	-71.11826	1237.34045	-1183.18945	54.97269	1367.17517	-1248.31311	23.44034	1167.93506	-1256.25623	15.88401	1044.45593	-1253.13904	24.67308	914.07220	-1221.09583	25.80159	795.36224	-1272.39148	4.47817	802.56927	-1260.95435	5.82629	718.27777	-867.36548	60.58589	1358.84863	-788.28271	101.45923	1144.66284	-774.57904	146.23326	1041.35168	-775.38568	201.62854	916.11615	-815.16595	253.65820	833.04071	-767.87140	230.69617	820.28845	-780.67444	273.43829	760.00037	-1135.70349	118.72287	931.64520	-898.48834	107.07224	933.43054	-1095.95923	-47.15818	948.43292	-946.50909	-51.56245	964.14636	-1188.33960	143.92982	637.86926	-1154.69849	214.12607	474.85492	-1157.16187	193.32022	280.09113	-1121.47363	210.59381	69.85941	-1080.39160	176.63623	30.31863	-1107.38538	359.62729	50.48778	-869.50745	23.57774	641.23218	-908.45575	10.82071	462.58002	-913.33197	-63.73790	284.43933	-968.71722	-122.56976	76.92403	-1021.77661	-166.92084	49.70327	-974.94189	16.71156	31.40665	-1038.83533	86.73011	1675.69055															 
185	1.840	-1081.30920	176.01340	1602.23071	-949.10187	159.62273	1608.09961	-1092.78931	44.13910	1573.57678	-962.06213	33.36305	1578.74841	-1028.47546	-4.71979	1410.40405	-1026.98938	-44.86623	1096.25391	-1026.91077	113.97906	1329.76660	-1028.70239	155.36868	1164.66406	-927.26520	-61.84525	1236.74683	-1183.81970	65.65625	1366.05298	-1248.95203	31.84592	1166.90601	-1256.84912	22.61887	1043.62939	-1253.51038	29.92462	913.13733	-1221.19165	29.82296	794.49585	-1272.47412	8.42879	801.84174	-1260.74072	8.74068	717.53845	-867.90460	70.05677	1357.89001	-788.41992	111.29838	1143.99023	-774.86688	157.10519	1041.14294	-775.82202	214.13176	916.66241	-816.07440	267.48065	834.63953	-768.93848	244.59218	821.30035	-781.71259	288.55768	762.04669	-1135.96570	128.93327	930.20618	-898.91626	115.90474	932.67322	-1097.42676	-37.13270	947.28400	-948.02295	-42.68336	963.28326	-1188.89331	150.60150	635.12579	-1153.67847	221.63779	472.66379	-1156.75537	209.06329	278.52231	-1122.25891	237.26723	69.05608	-1081.08008	205.11783	28.88964	-1108.07788	387.50061	53.71681	-869.75360	29.97167	640.90582	-908.47162	16.04672	462.21835	-913.57263	-60.73338	284.85767	-969.02795	-121.83125	78.03290	-1022.12225	-166.58231	51.21533	-974.95264	16.75580	31.35345																		 
186	1.850	-1082.31335	185.69749	1601.28027	-950.10773	168.98886	1607.36218	-1093.68201	53.87079	1572.21118	-963.00549	43.03622	1577.65222	-1029.32507	5.24322	1409.52673	-1028.51648	-34.81802	1095.16736	-1027.32898	123.97005	1328.68774	-1028.75061	165.16376	1163.47595	-928.37720	-52.40553	1236.08484	-1184.47864	76.39884	1364.95325	-1249.88696	40.53825	1165.97510	-1257.33777	29.54306	1042.87720	-1253.86499	35.46053	912.28345	-1221.16846	34.33495	793.82684	-1272.52173	12.71707	801.24390	-1260.61511	12.08128	716.91608	-868.55023	79.61119	1356.87402	-788.84723	121.06346	1143.29272	-775.21436	167.64954	1040.83826	-776.73438	226.38004	917.18494	-817.09625	280.95917	836.18506	-770.10907	258.13080	822.18256	-782.91901	303.27585	764.04211	-1136.26184	139.28391	928.72607	-898.60339	123.82013	931.62012	-1098.91113	-26.94874	946.17133	-949.59003	-33.66206	962.40027	-1189.82336	157.36546	632.53607	-1152.64917	228.74684	470.42584	-1156.32581	223.91290	277.00098	-1123.09351	262.10486	68.90408	-1082.02771	231.58020	27.80562	-1108.79529	413.21802	58.01492	-870.08380	36.55988	640.50995	-908.45612	21.51859	461.86078	-913.73303	-57.39075	285.26614	-969.20288	-121.25557	79.24108	-1022.42303	-166.16818	52.81975	-974.92554	16.78949	31.30720																		 
187	1.860	-1083.31067	195.48819	1600.39001	-951.15088	178.93140	1606.88159	-1094.64636	63.73723	1570.85962	-963.97156	52.85363	1576.58081	-1030.28772	15.31084	1408.57825	-1030.01636	-25.04725	1094.33020	-1027.71997	134.06532	1327.60291	-1028.88586	174.99379	1162.38550	-929.65704	-43.00639	1235.34180	-1185.18140	87.15347	1363.91650	-1249.94043	49.07079	1165.38635	-1257.84460	36.82561	1042.22803	-1254.26221	41.47472	911.57654	-1221.32629	39.18143	793.19647	-1272.61536	17.43437	800.70801	-1260.51709	15.99127	716.48267	-869.17621	89.14126	1355.91223	-789.27271	130.73694	1142.54773	-775.62378	177.97995	1040.45483	-777.66687	238.26382	917.59595	-818.26111	294.10748	837.62708	-771.44531	271.29077	823.04767	-784.21375	317.49557	765.84442	-1136.60315	149.61029	927.24957	-898.85791	132.47345	930.69678	-1100.44971	-16.68302	945.13202	-951.19269	-24.58897	961.50568	-1191.00989	164.34863	630.11047	-1151.42188	235.55931	468.09406	-1155.86157	237.88480	275.86002	-1124.01953	284.87262	69.28648	-1083.19287	256.18039	26.71277	-1109.67566	436.59860	63.24924	-870.38074	43.40679	640.14185	-908.33484	27.31746	461.44052	-913.81989	-53.88725	285.70050	-969.17456	-120.79916	80.59218	-1022.43939	-166.00754	54.79797	-974.89490	16.86782	31.25269																		 
188	1.870	-1084.22375	205.22676	1599.62671	-952.18262	188.41599	1606.22083	-1095.58472	73.58537	1569.64148	-964.95319	62.62874	1575.67200	-1031.27356	25.43510	1407.68738	-1031.53235	-15.06886	1093.50879	-1028.26831	144.22612	1326.58032	-1029.09985	184.87871	1161.39319	-930.98181	-33.49475	1234.61182	-1185.94421	97.95802	1362.94446	-1250.56848	58.04330	1164.73535	-1258.41357	44.34627	1041.67993	-1254.66235	47.72776	910.96191	-1221.53027	44.52667	792.64410	-1272.73071	22.63264	800.30487	-1260.49072	20.32911	716.04620	-869.90759	98.67495	1355.00452	-789.83618	140.29921	1141.80261	-776.11505	188.02071	1040.00439	-778.53845	249.83556	917.89325	-819.48114	306.81174	839.02991	-772.86023	284.09351	823.79761	-785.63855	331.21887	767.53894	-1136.95093	160.16881	925.88916	-899.19501	141.35695	929.79559	-1102.02222	-6.40618	944.12982	-952.79657	-15.41503	960.60040	-1192.12500	171.70937	628.03345	-1150.23718	242.27876	465.49380	-1155.35876	251.02190	275.04996	-1124.98096	305.41553	69.95189	-1084.46399	278.14908	26.31871	-1110.64429	457.55511	68.49976	-870.52563	50.37940	639.77490	-908.26154	33.39359	461.00693	-913.83557	-50.06331	286.21140	-969.12054	-120.01350	81.96091	-1022.41766	-165.60361	56.77757	-974.82745	16.97078	31.21454																		 
189	1.880	-1085.22693	215.04054	1598.84167	-953.14490	198.08640	1605.71533	-1096.58899	83.45949	1568.41101	-965.95313	72.46344	1574.84692	-1032.32458	35.58909	1406.83215	-1033.02698	-5.11781	1092.70789	-1028.81897	154.42213	1325.64331	-1029.35022	195.04179	1160.46497	-932.48456	-23.87517	1233.80396	-1186.72742	108.81261	1362.09644	-1251.33911	67.37096	1164.09851	-1258.93005	52.33827	1041.17322	-1255.00159	54.35433	910.49060	-1221.96069	50.20690	792.14709	-1272.89233	28.21904	799.96851	-1260.54895	25.24362	715.76025	-870.66278	108.25423	1354.10144	-790.48730	149.86987	1141.06409	-776.67322	197.91653	1039.51270	-779.60419	261.11548	918.17841	-820.81647	319.15182	840.23956	-774.36426	296.42645	824.46240	-787.22900	344.51563	769.11700	-1137.32410	170.80295	924.75391	-899.50262	150.29097	928.85742	-1103.51672	3.95250	943.33801	-954.38403	-6.12693	959.70032	-1192.84497	179.63911	626.17865	-1148.93530	249.42433	463.49631	-1155.07764	263.50912	274.53714	-1125.84790	323.93610	70.92696	-1085.62683	297.68265	26.19147	-1111.64868	476.37057	73.13129	-870.53955	57.63328	639.47333	-908.25378	39.81892	460.58847	-913.82947	-46.03417	286.75668	-968.92682	-119.41334	83.55367	-1022.19342	-165.09230	59.00694	-974.79333	17.09586	31.15161																		 
190	1.890	-1086.23315	224.85725	1598.20276	-954.21545	208.03026	1605.37500	-1097.64160	93.40444	1567.34143	-966.97394	82.29429	1573.95032	-1033.49646	45.80922	1406.00977	-1034.43616	4.92029	1091.86743	-1029.43579	164.63712	1324.80432	-1029.71338	205.26154	1159.61621	-934.00024	-14.20631	1233.01453	-1187.62097	119.67673	1361.27087	-1252.01123	76.82844	1163.50513	-1259.48608	60.57666	1040.71826	-1255.53674	61.65225	910.04700	-1222.12061	56.54452	791.78815	-1273.14758	34.31912	799.70673	-1260.60779	30.63632	715.53455	-871.46924	117.86442	1353.25696	-791.26984	159.33812	1140.35266	-777.32678	207.54117	1038.98694	-780.69025	272.00851	918.33490	-822.20056	331.16309	841.50403	-776.03125	308.34879	825.02106	-788.86761	357.31546	770.57263	-1137.64514	181.51146	923.77118	-899.94073	159.51520	928.04187	-1104.98486	14.41584	942.62915	-955.99109	3.35044	958.80054	-1193.00879	188.06638	624.52039	-1147.56128	257.10422	461.99069	-1154.91748	275.35938	274.28220	-1126.65503	339.98419	71.54108	-1086.78430	314.49890	26.32116	-1112.29297	492.80368	76.35141	-870.86523	65.22375	639.11926	-908.35425	46.30473	460.27832	-913.77600	-41.72302	287.43085	-968.71619	-118.15010	85.45288	-1021.90320	-164.48390	61.58935	-974.73254	17.23924	31.08157	-1048.50647	143.08987	1666.82690															 
191	1.900	-1087.18823	234.69511	1597.69470	-955.46484	217.64081	1605.02197	-1098.67773	103.38075	1566.36523	-968.10272	92.07841	1573.06531	-1034.60767	56.03778	1405.27271	-1035.85632	15.39810	1091.22021	-1030.12109	174.94977	1324.06506	-1030.06628	215.48882	1158.92554	-935.64990	-4.93088	1232.25012	-1188.56995	130.57773	1360.56616	-1252.71362	86.56689	1162.99023	-1260.03625	69.24393	1040.30261	-1256.16968	69.40408	909.66272	-1222.42798	63.28934	791.47888	-1273.38525	40.96453	799.47772	-1260.72485	36.64199	715.39288	-872.33063	127.63264	1352.45593	-792.14423	168.85236	1139.70508	-778.08777	217.04799	1038.42651	-781.90070	282.60992	918.42932	-823.54474	342.70529	842.48199	-777.72473	319.81787	825.46228	-790.66443	369.56451	771.74329	-1138.04285	192.40100	923.06207	-900.12616	168.44273	927.14966	-1106.41089	24.98540	942.09271	-957.48090	13.01561	958.03223	-1192.65161	197.03868	623.04779	-1146.73621	265.11813	460.48111	-1154.85913	286.10107	273.94620	-1127.15454	353.31677	71.64524	-1087.81616	328.48706	25.84289	-1112.52454	506.25256	78.13087	-871.27795	73.22328	638.92157	-908.26288	53.37489	460.03107	-913.65900	-37.27113	288.27628	-968.38696	-117.06931	87.59063	-1021.60742	-163.61792	64.38078	-974.63733	17.41651	31.01404	-1049.66980	152.64699	1666.08740															 
192	1.910	-1088.16382	244.57985	1597.32324	-956.23633	227.25699	1604.70789	-1099.58606	113.37395	1565.52356	-969.24573	101.84962	1572.35583	-1035.86230	66.36288	1404.56836	-1037.20276	25.82100	1090.66064	-1030.84741	185.33551	1323.47437	-1030.39063	225.48239	1158.29626	-937.37408	5.25071	1231.51831	-1189.53540	141.51358	1359.96826	-1253.69104	96.55624	1162.34216	-1260.72485	78.30396	1039.91589	-1256.45911	77.27958	909.22205	-1222.79333	70.53316	791.21619	-1273.70471	48.11412	799.25519	-1260.87830	43.13206	715.16724	-873.21149	137.24631	1351.85791	-793.08160	178.21806	1139.07056	-778.98383	226.38675	1037.85828	-783.16864	292.87689	918.44928	-825.06110	353.87314	843.39221	-779.51202	330.86984	825.77893	-792.45593	381.33249	772.79077	-1138.36755	203.23488	922.49969	-900.56500	178.10269	926.44745	-1107.84741	35.74393	941.66418	-958.99207	22.91294	957.40631	-1192.13745	206.51111	621.99799	-1146.42432	273.81714	459.29861	-1154.91357	295.77301	273.29135	-1127.22522	363.71597	71.04099	-1088.18066	339.11157	24.74050	-1111.90540	516.69629	78.21474	-871.63458	81.48125	638.82001	-908.24176	60.71484	459.88635	-913.44971	-32.54773	289.28339	-968.01508	-115.63712	89.90445	-1021.06903	-162.86711	67.64321	-974.56177	17.60515	30.94114																		 
